<svg version="1.1" id="Layer_1" xmlns="http://www.w3.org/2000/svg" xmlns:xlink="http://www.w3.org/1999/xlink" x="0px" y="0px"
	 width="100%" viewBox="0 0 285 285" enable-background="new 0 0 285 285" xml:space="preserve">
<path fill="#000000" opacity="1.000000" stroke="none" 
	d="
M69.000000,286.000000 
	C46.343304,286.000000 23.686605,286.000000 1.022431,286.000000 
	C1.014954,191.051758 1.014954,96.103508 1.014954,1.077629 
	C95.906410,1.077629 190.812897,1.077629 285.859680,1.077629 
	C285.859680,95.999855 285.859680,190.999893 285.859680,286.000000 
	C262.249908,286.000000 238.593613,286.000000 214.452209,285.533569 
	C213.329224,275.200226 216.030334,265.785492 217.401138,256.164825 
	C218.689621,247.121902 223.458755,240.097244 228.344208,233.761520 
	C235.484192,224.501999 240.984146,214.589539 244.502975,203.818604 
	C248.600540,191.276138 251.024017,178.183777 254.105896,165.313736 
	C255.678101,158.748169 254.230148,151.259811 260.397552,145.860779 
	C261.452087,143.789734 262.190857,141.880035 263.096985,139.662811 
	C263.444458,138.249222 263.624573,137.143127 263.895264,135.803680 
	C264.041779,135.413101 264.097687,135.255875 264.392059,134.921173 
	C264.702606,134.170212 264.774719,133.596725 264.894043,132.584900 
	C264.903473,130.090256 264.865723,128.033936 264.724548,125.608017 
	C262.688354,119.500877 261.940125,112.891510 258.521973,108.247101 
	C254.277756,102.480179 248.057510,98.030388 242.225113,93.628693 
	C239.411667,91.505371 236.150314,90.461479 235.094315,86.397690 
	C234.519104,84.184128 232.769409,81.850777 230.888199,80.476761 
	C223.594040,75.149200 216.030991,70.190140 208.578949,65.077980 
	C207.784836,64.533211 206.823456,64.032982 206.342651,63.261074 
	C200.311920,53.578922 191.091904,48.339668 180.880142,44.110210 
	C176.399628,42.254490 171.466446,39.844311 168.536057,36.229095 
	C162.016556,28.186029 153.664780,24.158157 143.865021,21.534443 
	C142.493866,20.649565 141.353348,19.969559 140.142532,19.454985 
	C130.594681,15.397301 121.754593,9.960417 110.180679,14.410831 
	C102.911407,17.206024 97.519951,21.090946 92.790894,27.068562 
	C89.139488,30.889294 85.064468,34.281879 84.936874,40.310249 
	C82.701912,44.335072 80.759590,48.124340 78.532509,51.738113 
	C77.564911,53.308159 76.186371,54.757584 74.691124,55.844471 
	C70.517227,58.878460 65.197037,60.911823 62.138000,64.773071 
	C57.084084,71.152351 53.795090,78.897339 49.108032,85.609940 
	C45.254459,91.128853 46.459755,95.793961 49.705963,100.829926 
	C49.719841,100.957733 49.526180,101.126854 49.171864,101.215614 
	C48.646584,101.959267 48.475624,102.614151 48.245659,103.200386 
	C48.186657,103.131729 48.340481,103.227219 48.001724,103.297699 
	C47.622562,103.795738 47.582153,104.223305 47.546463,104.760277 
	C47.551186,104.869682 47.355782,104.968590 47.013397,105.110367 
	C46.584839,105.709770 46.498669,106.167404 46.416664,106.729477 
	C46.420834,106.833916 46.240356,106.939407 45.900604,107.077164 
	C45.378460,107.895645 45.196064,108.576363 44.932312,109.573227 
	C43.000206,113.423325 41.045456,116.907280 39.317745,120.500389 
	C33.556202,132.482635 31.894844,144.624573 38.333221,156.937271 
	C40.521011,161.121201 42.814240,165.251740 45.133499,169.364838 
	C56.324715,189.212036 67.436417,209.105515 78.835686,228.832718 
	C81.165100,232.863907 81.496315,236.273102 80.246811,240.819534 
	C76.135216,255.780029 72.696922,270.925537 69.000000,286.000000 
z"/>
<path fill="#431A69" opacity="1.000000" stroke="none" 
	d="
M198.000000,286.000000 
	C196.285645,286.000000 194.571289,286.000000 192.169373,285.706177 
	C191.187164,284.024109 190.892548,282.635834 190.567444,281.103973 
	C178.255875,282.349518 166.289703,283.540894 154.332092,284.812622 
	C153.521790,284.898804 152.775864,285.590118 152.000000,286.000000 
	C127.645775,286.000000 103.291542,286.000000 78.184464,285.700928 
	C82.268532,269.355774 87.252899,253.351151 91.787277,237.220047 
	C92.486847,234.731354 91.856216,231.262589 90.589134,228.925720 
	C82.437462,213.891586 73.937271,199.046448 65.909821,184.028320 
	C67.140762,182.574677 68.136803,181.295380 68.865036,179.878448 
	C72.336365,173.124298 77.266060,168.173447 85.286812,168.088593 
	C95.930977,167.975983 104.103394,163.362518 110.989235,155.615128 
	C112.034729,154.438797 114.185776,153.959427 115.900848,153.735764 
	C118.072891,153.452484 120.322090,153.760742 122.832054,153.939636 
	C148.620148,179.549438 156.063431,209.449234 144.077667,244.232254 
	C145.802765,242.813828 146.794846,242.056229 147.710800,241.215698 
	C148.064133,240.891449 148.266464,240.390411 148.500580,239.950226 
	C156.912506,224.133530 160.185852,207.529999 156.378021,189.772537 
	C153.519485,176.442047 146.636719,165.135681 139.051208,153.940125 
	C140.568909,152.049911 141.908478,150.463058 143.561600,148.988342 
	C160.872391,160.490540 177.846802,171.914841 194.876648,183.255905 
	C203.177292,188.783722 206.708664,188.519501 213.689926,181.599243 
	C219.830902,175.511948 225.701599,169.152496 231.725220,162.945801 
	C232.757217,161.882431 233.957413,160.982300 235.079910,160.006744 
	C235.438721,160.256851 235.797531,160.506958 236.156357,160.757065 
	C234.998108,166.651230 233.829132,172.543289 232.683578,178.439926 
	C228.424881,200.361069 219.074570,219.687088 203.739029,236.082809 
	C201.950226,237.995285 200.382797,240.885590 200.220428,243.419205 
	C199.381927,256.502502 199.043762,269.617676 198.499191,282.720398 
	C198.453552,283.818604 198.171967,284.907043 198.000000,286.000000 
z"/>
<path fill="#F6F2F5" opacity="1.000000" stroke="none" 
	d="
M138.873062,154.243454 
	C146.636719,165.135681 153.519485,176.442047 156.378021,189.772537 
	C160.185852,207.529999 156.912506,224.133530 148.500580,239.950226 
	C148.266464,240.390411 148.064133,240.891449 147.710800,241.215698 
	C146.794846,242.056229 145.802765,242.813828 144.077667,244.232254 
	C156.063431,209.449234 148.620148,179.549438 122.659248,153.632645 
	C112.351822,143.905991 100.846046,137.695633 86.543289,134.939926 
	C95.989243,129.270798 99.176346,121.951050 95.710312,110.858002 
	C97.451042,112.973465 98.206436,113.813560 98.875969,114.717278 
	C105.054001,123.056335 112.803741,128.902954 123.312256,130.695709 
	C136.223969,132.898453 149.349197,126.806854 154.056625,116.227531 
	C157.460434,108.577911 155.898819,103.369324 148.485901,99.815086 
	C130.169601,91.033096 111.782356,82.395355 93.332764,73.896889 
	C85.590805,70.330704 79.697456,71.733620 75.219963,79.112709 
	C65.638916,94.902702 56.398991,110.915802 47.553993,127.129189 
	C43.413708,134.718567 42.552677,143.221756 46.819126,151.182068 
	C52.786587,162.316071 59.281998,173.167130 65.551529,184.139236 
	C73.937271,199.046448 82.437462,213.891586 90.589134,228.925720 
	C91.856216,231.262589 92.486847,234.731354 91.787277,237.220047 
	C87.252899,253.351151 82.268532,269.355774 77.715805,285.700928 
	C75.299988,286.000000 72.599968,286.000000 69.449982,286.000000 
	C72.696922,270.925537 76.135216,255.780029 80.246811,240.819534 
	C81.496315,236.273102 81.165100,232.863907 78.835686,228.832718 
	C67.436417,209.105515 56.324715,189.212036 45.133499,169.364838 
	C42.814240,165.251740 40.521011,161.121201 38.333221,156.937271 
	C31.894844,144.624573 33.556202,132.482635 39.317745,120.500389 
	C41.045456,116.907280 43.000206,113.423325 45.253685,109.412338 
	C45.851070,108.270004 46.045712,107.604706 46.240356,106.939407 
	C46.240356,106.939407 46.420834,106.833916 46.730644,106.562378 
	C47.145561,105.850082 47.250668,105.409340 47.355782,104.968590 
	C47.355782,104.968590 47.551186,104.869682 47.831985,104.623337 
	C48.188683,103.993736 48.264584,103.610481 48.340485,103.227219 
	C48.340481,103.227219 48.186657,103.131729 48.562477,103.069931 
	C49.134254,102.381042 49.330215,101.753952 49.526180,101.126854 
	C49.526180,101.126854 49.719841,100.957733 50.034180,100.716713 
	C56.224407,91.000511 61.666508,81.212105 68.177307,72.195381 
	C71.011513,68.270325 76.054710,65.948883 80.064476,62.859951 
	C81.684235,61.612160 83.686539,60.551239 84.722191,58.906284 
	C90.485580,49.752075 95.765862,40.288116 101.677353,31.234339 
	C107.418968,22.440714 116.807549,19.646095 126.634140,23.175426 
	C130.228897,24.466522 133.766083,25.917864 137.594330,27.555214 
	C143.407532,30.476744 149.193558,32.753063 154.406143,35.961155 
	C157.094360,37.615623 158.761337,40.928238 160.892944,43.488964 
	C161.554062,44.283157 162.068054,45.376362 162.916595,45.810890 
	C172.195007,50.562218 181.706696,54.894974 190.741669,60.063938 
	C193.736603,61.777370 195.519073,65.589325 197.906204,68.399094 
	C198.590256,69.204239 199.346786,70.043037 200.247620,70.552467 
	C204.429855,72.917572 209.030060,74.702347 212.819229,77.569107 
	C219.708313,82.781128 228.224304,86.804405 229.557724,96.951950 
	C229.650696,97.659409 230.734039,98.489517 231.537750,98.812622 
	C242.398865,103.179008 249.986694,110.968193 255.292267,121.636444 
	C255.859604,124.357330 256.378052,126.680740 256.771729,129.322128 
	C256.595642,130.768875 256.544373,131.897659 256.329681,133.377594 
	C254.820297,137.150116 253.474335,140.571457 251.971497,144.316376 
	C250.418381,147.126633 248.421860,149.462860 247.752731,152.131882 
	C246.420715,157.444977 245.948990,162.966629 244.892990,168.357285 
	C239.605072,195.350739 231.171127,220.915970 211.473938,241.328979 
	C210.716064,242.114380 210.062897,243.286407 209.932465,244.348465 
	C208.228134,258.224945 206.627045,272.114044 205.000000,286.000000 
	C202.958328,286.000000 200.916672,286.000000 198.437500,286.000000 
	C198.171967,284.907043 198.453552,283.818604 198.499191,282.720398 
	C199.043762,269.617676 199.381927,256.502502 200.220428,243.419205 
	C200.382797,240.885590 201.950226,237.995285 203.739029,236.082809 
	C219.074570,219.687088 228.424881,200.361069 232.683578,178.439926 
	C233.829132,172.543289 234.998108,166.651230 236.156357,160.757065 
	C235.797531,160.506958 235.438721,160.256851 235.079910,160.006744 
	C233.957413,160.982300 232.757217,161.882431 231.725220,162.945801 
	C225.701599,169.152496 219.830902,175.511948 213.689926,181.599243 
	C206.708664,188.519501 203.177292,188.783722 194.876648,183.255905 
	C177.846802,171.914841 160.872391,160.490540 143.444992,148.640244 
	C143.533386,144.768158 144.051956,141.356323 144.601639,137.739655 
	C139.931030,139.777176 135.155914,141.860275 129.832047,144.182770 
	C133.162750,147.889114 136.017899,151.066284 138.873062,154.243454 
M159.861847,147.665817 
	C161.775146,149.000534 163.653412,150.389084 165.607468,151.661194 
	C178.056030,159.765305 176.275955,159.926605 185.044296,148.517792 
	C195.702515,134.649979 206.050674,120.541275 216.389526,106.431671 
	C221.129303,99.963234 220.804184,97.270172 214.594910,92.056427 
	C210.526764,88.640533 206.128601,85.580818 201.678192,82.667137 
	C196.945129,79.568390 195.029037,80.002235 191.785538,84.736610 
	C180.204803,101.640350 168.697815,118.594719 157.192993,135.550323 
	C152.562729,142.374329 152.598099,142.398331 159.861847,147.665817 
M210.728485,172.350311 
	C221.683029,160.507935 232.745148,148.762482 243.541962,136.778030 
	C248.205368,131.601669 248.358643,127.409653 244.014084,122.035027 
	C240.806000,118.066345 236.879410,114.644760 233.065933,111.209206 
	C229.688843,108.166786 226.664719,108.730965 223.803680,112.411575 
	C211.653687,128.042023 199.431274,143.617584 187.074081,159.084366 
	C184.818695,161.907303 185.316345,163.817093 187.794022,165.769165 
	C191.191330,168.445786 194.582672,171.135345 198.073853,173.686203 
	C203.357315,177.546585 205.079742,177.379272 210.728485,172.350311 
M109.625771,69.940125 
	C116.703835,73.166664 123.781898,76.393196 131.071182,79.716026 
	C137.234146,69.891930 143.192383,60.487495 149.042862,51.016491 
	C151.033478,47.793976 149.919617,45.071682 146.728333,43.550503 
	C138.766769,39.755478 130.764069,36.025532 122.629929,32.623131 
	C118.852615,31.043131 114.433037,31.514433 112.056702,34.861778 
	C105.769768,43.717621 100.098785,53.010735 93.965919,62.463909 
	C99.654411,65.181274 104.298584,67.399765 109.625771,69.940125 
M164.210602,101.351158 
	C164.625107,103.051506 165.039597,104.751862 165.762405,107.716904 
	C173.182526,96.233696 180.155487,85.764656 186.631729,74.996880 
	C187.408463,73.705452 186.162155,69.761414 184.702560,68.806953 
	C178.035568,64.447281 171.093857,60.435471 163.930115,56.959740 
	C162.191818,56.116344 158.104675,56.956837 157.027756,58.432068 
	C151.088730,66.567619 145.747894,75.139832 139.971405,83.912392 
	C145.782089,86.854767 151.218033,89.060616 156.016266,92.231506 
	C159.155914,94.306335 161.371811,97.779037 164.210602,101.351158 
M235.000000,160.500000 
	C235.199997,160.633331 235.400009,160.766663 235.600006,160.899994 
	C235.566666,160.599991 235.533325,160.300003 235.000000,160.500000 
z"/>
<path fill="#49226E" opacity="1.000000" stroke="none" 
	d="
M205.449982,286.000000 
	C206.627045,272.114044 208.228134,258.224945 209.932465,244.348465 
	C210.062897,243.286407 210.716064,242.114380 211.473938,241.328979 
	C231.171127,220.915970 239.605072,195.350739 244.892990,168.357285 
	C245.948990,162.966629 246.420715,157.444977 247.752731,152.131882 
	C248.421860,149.462860 250.418381,147.126633 252.343414,144.343933 
	C255.275421,144.705994 257.678619,145.364075 260.081818,146.022141 
	C254.230148,151.259811 255.678101,158.748169 254.105896,165.313736 
	C251.024017,178.183777 248.600540,191.276138 244.502975,203.818604 
	C240.984146,214.589539 235.484192,224.501999 228.344208,233.761520 
	C223.458755,240.097244 218.689621,247.121902 217.401138,256.164825 
	C216.030334,265.785492 213.329224,275.200226 213.983551,285.533569 
	C211.299988,286.000000 208.599976,286.000000 205.449982,286.000000 
z"/>
<path fill="#F0EBF0" opacity="1.000000" stroke="none" 
	d="
M152.468658,286.000000 
	C152.775864,285.590118 153.521790,284.898804 154.332092,284.812622 
	C166.289703,283.540894 178.255875,282.349518 190.567444,281.103973 
	C190.892548,282.635834 191.187164,284.024109 191.740906,285.706177 
	C178.979111,286.000000 165.958206,286.000000 152.468658,286.000000 
z"/>
<path fill="#4E2370" opacity="1.000000" stroke="none" 
	d="
M255.243393,121.238960 
	C249.986694,110.968193 242.398865,103.179008 231.537750,98.812622 
	C230.734039,98.489517 229.650696,97.659409 229.557724,96.951950 
	C228.224304,86.804405 219.708313,82.781128 212.819229,77.569107 
	C209.030060,74.702347 204.429855,72.917572 200.247620,70.552467 
	C199.346786,70.043037 198.590256,69.204239 197.906204,68.399094 
	C195.519073,65.589325 193.736603,61.777370 190.741669,60.063938 
	C181.706696,54.894974 172.195007,50.562218 162.916595,45.810890 
	C162.068054,45.376362 161.554062,44.283157 160.892944,43.488964 
	C158.761337,40.928238 157.094360,37.615623 154.406143,35.961155 
	C149.193558,32.753063 143.407532,30.476744 137.979462,27.453735 
	C140.087570,25.334085 142.075333,23.575026 144.063095,21.815964 
	C153.664780,24.158157 162.016556,28.186029 168.536057,36.229095 
	C171.466446,39.844311 176.399628,42.254490 180.880142,44.110210 
	C191.091904,48.339668 200.311920,53.578922 206.342651,63.261074 
	C206.823456,64.032982 207.784836,64.533211 208.578949,65.077980 
	C216.030991,70.190140 223.594040,75.149200 230.888199,80.476761 
	C232.769409,81.850777 234.519104,84.184128 235.094315,86.397690 
	C236.150314,90.461479 239.411667,91.505371 242.225113,93.628693 
	C248.057510,98.030388 254.277756,102.480179 258.521973,108.247101 
	C261.940125,112.891510 262.688354,119.500877 264.365723,125.588326 
	C261.154663,124.371796 258.199036,122.805382 255.243393,121.238960 
z"/>
<path fill="#542372" opacity="1.000000" stroke="none" 
	d="
M143.865021,21.534447 
	C142.075333,23.575026 140.087570,25.334085 137.714661,27.194624 
	C133.766083,25.917864 130.228897,24.466522 126.634140,23.175426 
	C116.807549,19.646095 107.418968,22.440714 101.677353,31.234339 
	C95.765862,40.288116 90.485580,49.752075 84.722191,58.906284 
	C83.686539,60.551239 81.684235,61.612160 80.064476,62.859951 
	C76.054710,65.948883 71.011513,68.270325 68.177307,72.195381 
	C61.666508,81.212105 56.224407,91.000511 50.020306,100.588905 
	C46.459755,95.793961 45.254459,91.128853 49.108032,85.609940 
	C53.795090,78.897339 57.084084,71.152351 62.138000,64.773071 
	C65.197037,60.911823 70.517227,58.878460 74.691124,55.844471 
	C76.186371,54.757584 77.564911,53.308159 78.532509,51.738113 
	C80.759590,48.124340 82.701912,44.335072 85.276230,40.277695 
	C88.246643,35.653896 90.700607,31.369434 93.154572,27.084972 
	C97.519951,21.090946 102.911407,17.206024 110.180679,14.410831 
	C121.754593,9.960417 130.594681,15.397301 140.142532,19.454985 
	C141.353348,19.969559 142.493866,20.649565 143.865021,21.534447 
z"/>
<path fill="#441F67" opacity="1.000000" stroke="none" 
	d="
M255.292267,121.636444 
	C258.199036,122.805382 261.154663,124.371796 264.469116,125.957916 
	C264.865723,128.033936 264.903473,130.090256 264.649353,132.655609 
	C264.289520,133.809296 264.221558,134.453964 264.153625,135.098648 
	C264.097687,135.255875 264.041779,135.413101 263.610474,135.917786 
	C263.133301,137.500275 263.031464,138.735306 262.929657,139.970337 
	C262.190857,141.880035 261.452087,143.789734 260.397552,145.860779 
	C257.678619,145.364075 255.275421,144.705994 252.500305,144.020370 
	C253.474335,140.571457 254.820297,137.150116 256.663940,133.365753 
	C257.983948,132.425949 258.806305,131.849152 259.628662,131.272369 
	C258.717957,130.516296 257.807220,129.760223 256.896515,129.004150 
	C256.378052,126.680740 255.859604,124.357330 255.292267,121.636444 
z"/>
<path fill="#EAE5EC" opacity="1.000000" stroke="none" 
	d="
M92.790894,27.068560 
	C90.700607,31.369434 88.246643,35.653896 85.453323,39.970917 
	C85.064468,34.281879 89.139488,30.889294 92.790894,27.068560 
z"/>
<path fill="#4E2370" opacity="1.000000" stroke="none" 
	d="
M263.096985,139.662811 
	C263.031464,138.735306 263.133301,137.500275 263.519897,136.151154 
	C263.624573,137.143127 263.444458,138.249222 263.096985,139.662811 
z"/>
<path fill="#4E2370" opacity="1.000000" stroke="none" 
	d="
M264.392059,134.921173 
	C264.221558,134.453964 264.289520,133.809296 264.602112,133.093918 
	C264.774719,133.596725 264.702606,134.170212 264.392059,134.921173 
z"/>
<path fill="#542372" opacity="1.000000" stroke="none" 
	d="
M45.900604,107.077164 
	C46.045712,107.604706 45.851070,108.270004 45.335049,109.096191 
	C45.196064,108.576363 45.378460,107.895645 45.900604,107.077164 
z"/>
<path fill="#542372" opacity="1.000000" stroke="none" 
	d="
M49.171864,101.215614 
	C49.330215,101.753952 49.134254,102.381042 48.621479,103.138596 
	C48.475624,102.614151 48.646584,101.959267 49.171864,101.215614 
z"/>
<path fill="#542372" opacity="1.000000" stroke="none" 
	d="
M47.013397,105.110367 
	C47.250668,105.409340 47.145561,105.850082 46.726471,106.457932 
	C46.498669,106.167404 46.584839,105.709770 47.013397,105.110367 
z"/>
<path fill="#542372" opacity="1.000000" stroke="none" 
	d="
M48.001728,103.297699 
	C48.264584,103.610481 48.188683,103.993736 47.827263,104.513931 
	C47.582153,104.223305 47.622562,103.795738 48.001728,103.297699 
z"/>
<path fill="#4B196C" opacity="1.000000" stroke="none" 
	d="
M65.909821,184.028320 
	C59.281998,173.167130 52.786587,162.316071 46.819126,151.182068 
	C42.552677,143.221756 43.413708,134.718567 47.553993,127.129189 
	C56.398991,110.915802 65.638916,94.902702 75.219963,79.112709 
	C79.697456,71.733620 85.590805,70.330704 93.332764,73.896889 
	C111.782356,82.395355 130.169601,91.033096 148.485901,99.815086 
	C155.898819,103.369324 157.460434,108.577911 154.056625,116.227531 
	C149.349197,126.806854 136.223969,132.898453 123.312256,130.695709 
	C112.803741,128.902954 105.054001,123.056335 98.875969,114.717278 
	C98.206436,113.813560 97.451042,112.973465 95.710312,110.858002 
	C99.176346,121.951050 95.989243,129.270798 86.543289,134.939926 
	C100.846046,137.695633 112.351822,143.905991 122.365204,153.506882 
	C120.322090,153.760742 118.072891,153.452484 115.900848,153.735764 
	C114.185776,153.959427 112.034729,154.438797 110.989235,155.615128 
	C104.103394,163.362518 95.930977,167.975983 85.286812,168.088593 
	C77.266060,168.173447 72.336365,173.124298 68.865036,179.878448 
	C68.136803,181.295380 67.140762,182.574677 65.909821,184.028320 
z"/>
<path fill="#542974" opacity="1.000000" stroke="none" 
	d="
M139.051208,153.940125 
	C136.017899,151.066284 133.162750,147.889114 129.832047,144.182770 
	C135.155914,141.860275 139.931030,139.777176 144.601639,137.739655 
	C144.051956,141.356323 143.533386,144.768158 143.131439,148.528091 
	C141.908478,150.463058 140.568909,152.049911 139.051208,153.940125 
z"/>
<path fill="#4A1B6B" opacity="1.000000" stroke="none" 
	d="
M159.581573,147.436722 
	C152.598099,142.398331 152.562729,142.374329 157.192993,135.550323 
	C168.697815,118.594719 180.204803,101.640350 191.785538,84.736610 
	C195.029037,80.002235 196.945129,79.568390 201.678192,82.667137 
	C206.128601,85.580818 210.526764,88.640533 214.594910,92.056427 
	C220.804184,97.270172 221.129303,99.963234 216.389526,106.431671 
	C206.050674,120.541275 195.702515,134.649979 185.044296,148.517792 
	C176.275955,159.926605 178.056030,159.765305 165.607468,151.661194 
	C163.653412,150.389084 161.775146,149.000534 159.581573,147.436722 
z"/>
<path fill="#491B6B" opacity="1.000000" stroke="none" 
	d="
M210.461258,172.600464 
	C205.079742,177.379272 203.357315,177.546585 198.073853,173.686203 
	C194.582672,171.135345 191.191330,168.445786 187.794022,165.769165 
	C185.316345,163.817093 184.818695,161.907303 187.074081,159.084366 
	C199.431274,143.617584 211.653687,128.042023 223.803680,112.411575 
	C226.664719,108.730965 229.688843,108.166786 233.065933,111.209206 
	C236.879410,114.644760 240.806000,118.066345 244.014084,122.035027 
	C248.358643,127.409653 248.205368,131.601669 243.541962,136.778030 
	C232.745148,148.762482 221.683029,160.507935 210.461258,172.600464 
z"/>
<path fill="#4D1B6C" opacity="1.000000" stroke="none" 
	d="
M109.284256,69.779190 
	C104.298584,67.399765 99.654411,65.181274 93.965919,62.463909 
	C100.098785,53.010735 105.769768,43.717621 112.056702,34.861778 
	C114.433037,31.514433 118.852615,31.043131 122.629929,32.623131 
	C130.764069,36.025532 138.766769,39.755478 146.728333,43.550503 
	C149.919617,45.071682 151.033478,47.793976 149.042862,51.016491 
	C143.192383,60.487495 137.234146,69.891930 131.071182,79.716026 
	C123.781898,76.393196 116.703835,73.166664 109.284256,69.779190 
z"/>
<path fill="#4B1C6C" opacity="1.000000" stroke="none" 
	d="
M164.106033,100.988396 
	C161.371811,97.779037 159.155914,94.306335 156.016266,92.231506 
	C151.218033,89.060616 145.782089,86.854767 139.971405,83.912392 
	C145.747894,75.139832 151.088730,66.567619 157.027756,58.432068 
	C158.104675,56.956837 162.191818,56.116344 163.930115,56.959740 
	C171.093857,60.435471 178.035568,64.447281 184.702560,68.806953 
	C186.162155,69.761414 187.408463,73.705452 186.631729,74.996880 
	C180.155487,85.764656 173.182526,96.233696 165.762405,107.716904 
	C165.039597,104.751862 164.625107,103.051506 164.106033,100.988396 
z"/>
<path fill="#4E2370" opacity="1.000000" stroke="none" 
	d="
M256.771729,129.322128 
	C257.807220,129.760223 258.717957,130.516296 259.628662,131.272369 
	C258.806305,131.849152 257.983948,132.425949 256.827362,133.014587 
	C256.544373,131.897659 256.595642,130.768875 256.771729,129.322128 
z"/>
<path fill="#5F3A80" opacity="1.000000" stroke="none" 
	d="
M235.250000,160.250000 
	C235.533325,160.300003 235.566666,160.599991 235.600006,160.899994 
	C235.400009,160.766663 235.199997,160.633331 235.250000,160.250000 
z"/>
</svg>